<?xml version="1.0" encoding="UTF-8" standalone="no" ?>
<!DOCTYPE svg PUBLIC "-//W3C//DTD SVG 1.1//EN" "http://www.w3.org/Graphics/SVG/1.1/DTD/svg11.dtd">
<svg xmlns="http://www.w3.org/2000/svg" xmlns:xlink="http://www.w3.org/1999/xlink" version="1.1" width="1080" height="210" viewBox="0 0 1080 210" xml:space="preserve">
<desc>Created with Fabric.js 5.2.4</desc>
<defs>
</defs>
<rect x="0" y="0" width="100%" height="100%" fill="transparent"></rect>
<g transform="matrix(Infinity NaN NaN Infinity 0 0)" id="1a6d4152-9f47-4e99-be2e-95422512040e"  >
</g>
<g transform="matrix(1 0 0 1 540 105)" id="a83bc9d6-9d7a-4b21-8f05-670a537fff78"  >
<rect style="stroke: none; stroke-width: 1; stroke-dasharray: none; stroke-linecap: butt; stroke-dashoffset: 0; stroke-linejoin: miter; stroke-miterlimit: 4; fill: rgb(255,255,255); fill-rule: nonzero; opacity: 1; visibility: hidden;" vector-effect="non-scaling-stroke"  x="-540" y="-105" rx="0" ry="0" width="1080" height="210" />
</g>
<g transform="matrix(1.27 0 0 0.52 2894.46 1217.35)"  >
<rect style="stroke: none; stroke-width: 1; stroke-dasharray: none; stroke-linecap: butt; stroke-dashoffset: 0; stroke-linejoin: miter; stroke-miterlimit: 4; fill: rgb(255,255,255); fill-rule: nonzero; opacity: 1; visibility: hidden;" vector-effect="non-scaling-stroke"  x="-250" y="-85" rx="0" ry="0" width="500" height="170" />
</g>
<g transform="matrix(0.85 0 0 0.39 128.01 -255.24)"  >
<path style="stroke: rgb(0,0,0); stroke-width: 2; stroke-dasharray: none; stroke-linecap: butt; stroke-dashoffset: 0; stroke-linejoin: miter; stroke-miterlimit: 4; fill: rgb(250,222,42); fill-rule: nonzero; opacity: 1;" vector-effect="non-scaling-stroke"  transform=" translate(-800.96, -379.97)" d="M 1600.924 0.002 L 0.92 2.006 L 1.987 748.776 L 78.8 727.618 L 155.805 754.658 L 307.51 726.474 L 567.777 759.9340000000001 L 894.249 723.0070000000001 L 1138.332 755.349 L 1300.7980000000002 730.139 C 1337.2600000000002 745.359 1431.2800000000002 740.752 1463.4530000000002 747.405 C 1554.553 766.24 1518.9510000000002 748.0169999999999 1601.0030000000002 748.775 L 1600.9230000000002 0.0019999999999527063 z" stroke-linecap="round" />
</g>
<g transform="matrix(1.05 0 0 1.05 -1000.05 -788.95)"  >
<rect style="stroke: none; stroke-width: 1; stroke-dasharray: none; stroke-linecap: butt; stroke-dashoffset: 0; stroke-linejoin: miter; stroke-miterlimit: 4; fill: rgb(255,255,255); fill-opacity: 0; fill-rule: nonzero; opacity: 1;" vector-effect="non-scaling-stroke"  x="-50" y="-50" rx="0" ry="0" width="100" height="100" />
</g>
<g transform="matrix(1.05 0 0 1.05 -315.45 -274.45)"  >
<rect style="stroke: none; stroke-width: 1; stroke-dasharray: none; stroke-linecap: butt; stroke-dashoffset: 0; stroke-linejoin: miter; stroke-miterlimit: 4; fill: rgb(255,255,255); fill-rule: nonzero; opacity: 1; visibility: hidden;" vector-effect="non-scaling-stroke"  x="-702" y="-540" rx="0" ry="0" width="1404" height="1080" />
</g>
<g transform="matrix(0.72 0 0 0.47 570.61 11.73)"  >
<path style="stroke: rgb(0,0,0); stroke-width: 2; stroke-dasharray: none; stroke-linecap: butt; stroke-dashoffset: 0; stroke-linejoin: miter; stroke-miterlimit: 4; fill: rgb(250,222,42); fill-rule: nonzero; opacity: 1;" vector-effect="non-scaling-stroke"  transform=" translate(-800.96, -379.97)" d="M 1600.924 0.002 L 0.92 2.006 L 1.987 748.776 L 78.8 727.618 L 155.805 754.658 L 307.51 726.474 L 567.777 759.9340000000001 L 894.249 723.0070000000001 L 1138.332 755.349 L 1300.7980000000002 730.139 C 1337.2600000000002 745.359 1431.2800000000002 740.752 1463.4530000000002 747.405 C 1554.553 766.24 1518.9510000000002 748.0169999999999 1601.0030000000002 748.775 L 1600.9230000000002 0.0019999999999527063 z" stroke-linecap="round" />
</g>
<g transform="matrix(1.05 0 0 1.05 -315.45 -70.76)"  >
<rect style="stroke: none; stroke-width: 1; stroke-dasharray: none; stroke-linecap: butt; stroke-dashoffset: 0; stroke-linejoin: miter; stroke-miterlimit: 4; fill: rgb(255,255,255); fill-rule: nonzero; opacity: 1; visibility: hidden;" vector-effect="non-scaling-stroke"  x="-250" y="-85" rx="0" ry="0" width="500" height="170" />
</g>
<g transform="matrix(0.29 0 0 0.73 -315.97 -288.63)"  >
<path style="stroke: rgb(0,0,0); stroke-width: 0; stroke-dasharray: none; stroke-linecap: butt; stroke-dashoffset: 0; stroke-linejoin: miter; stroke-miterlimit: 4; fill: rgb(250,222,42); fill-rule: nonzero; opacity: 1;" vector-effect="non-scaling-stroke"  transform=" translate(-800.96, -379.97)" d="M 1600.924 0.002 L 0.92 2.006 L 1.987 748.776 L 78.8 727.618 L 155.805 754.658 L 307.51 726.474 L 567.777 759.9340000000001 L 894.249 723.0070000000001 L 1138.332 755.349 L 1300.7980000000002 730.139 C 1337.2600000000002 745.359 1431.2800000000002 740.752 1463.4530000000002 747.405 C 1554.553 766.24 1518.9510000000002 748.0169999999999 1601.0030000000002 748.775 L 1600.9230000000002 0.0019999999999527063 z" stroke-linecap="round" />
</g>
</svg>